<?xml version="1.0" standalone="no"?>
<!DOCTYPE svg PUBLIC "-//W3C//DTD SVG 20010904//EN"
 "http://www.w3.org/TR/2001/REC-SVG-20010904/DTD/svg10.dtd">
<svg version="1.0" xmlns="http://www.w3.org/2000/svg"
 width="32" height="30" viewBox="0 0 300.000000 300.000000"
 preserveAspectRatio="xMidYMid meet">
<metadata>
Created by potrace 1.10, written by Peter Selinger 2001-2011
</metadata>
<g transform="translate(0.000000,300.000000) scale(0.100000,-0.100000)"
fill="#2A7AE4" stroke="none">
<path d="M1215 2715 c-11 -11 -43 -38 -70 -60 -28 -22 -55 -44 -61 -50 -6 -5
-32 -28 -59 -50 -26 -22 -71 -59 -98 -82 -31 -26 -84 -55 -141 -78 -194 -76
-390 -251 -493 -440 -27 -50 -79 -190 -88 -236 -38 -199 -28 -375 30 -535 42
-116 85 -199 132 -254 50 -58 59 -49 17 18 -20 31 -42 66 -48 77 -6 11 -16 27
-22 35 -51 68 -129 380 -104 420 4 7 55 10 150 8 l144 -3 8 -45 c32 -176 82
-284 183 -386 67 -67 179 -144 211 -144 8 0 13 -4 10 -9 -4 -5 32 -12 79 -16
54 -5 82 -11 78 -18 -4 -7 8 -8 35 -4 l42 5 0 -156 0 -157 -575 3 c-512 2
-575 1 -575 -13 0 -14 63 -15 567 -15 313 0 868 0 1235 0 l667 0 3 -131 c3
-130 3 -130 23 -112 21 19 118 100 200 168 27 22 106 88 176 147 l128 107
-117 98 c-64 54 -126 106 -137 115 -11 9 -76 63 -145 121 l-125 104 -3 -131
-3 -131 -257 3 c-262 3 -338 -2 -311 -19 8 -5 136 -9 285 -9 218 0 274 3 290
14 16 12 20 29 22 105 2 50 8 91 12 91 5 0 37 -23 72 -52 161 -132 295 -245
318 -265 14 -13 28 -23 32 -23 5 0 8 -7 8 -15 0 -17 -13 -29 -175 -165 -209
-174 -242 -200 -254 -200 -7 0 -11 31 -11 85 0 138 53 126 -550 123 -303 -2
-511 1 -513 6 -2 6 -21 5 -48 -2 -40 -10 -150 -8 -206 4 -22 4 -23 7 -23 139
0 139 2 146 45 152 256 37 453 187 543 413 17 42 52 188 52 216 0 2 63 4 139
4 153 0 156 -1 146 -64 -2 -17 -7 -49 -10 -71 -16 -113 -80 -275 -157 -393
-22 -34 -37 -66 -33 -70 8 -8 68 59 92 107 10 18 26 47 35 65 19 35 58 131 64
161 3 11 7 31 10 44 3 14 7 28 9 31 25 40 25 360 1 399 -3 4 -8 21 -11 37 -8
40 -9 44 -24 89 -14 42 -98 206 -110 215 -3 3 -14 17 -23 31 -30 48 -113 132
-186 191 -73 57 -250 152 -304 162 -15 2 -32 7 -37 10 -11 7 -102 23 -143 25
-15 1 -18 17 -20 139 l-3 137 -20 -20z m-4 -112 c1 -32 1 -72 0 -90 -3 -46 32
-78 95 -87 72 -11 231 -65 289 -99 185 -108 327 -259 403 -427 45 -102 72
-194 82 -284 6 -49 16 -96 22 -103 8 -11 -19 -13 -153 -13 l-164 0 0 43 c-1
162 -100 352 -238 456 -73 55 -178 108 -244 121 -49 11 -56 10 -68 -7 -7 -10
-11 -21 -9 -25 3 -5 1 -8 -4 -8 -6 0 -10 -34 -10 -76 0 -41 -2 -78 -5 -81 -5
-4 -81 51 -107 77 -36 36 -168 131 -157 113 4 -5 -19 -20 -49 -33 -149 -61
-274 -189 -335 -344 -24 -60 -48 -182 -43 -213 l4 -23 -163 0 -164 0 14 102
c17 120 63 270 99 324 15 22 31 51 36 66 6 16 14 28 19 28 5 0 9 5 9 10 0 6 6
18 13 26 30 39 166 173 207 206 58 46 199 120 212 111 7 -3 8 -1 4 5 -4 7 -1
12 9 12 12 0 15 -5 11 -16 -4 -11 6 -8 31 11 61 45 126 97 153 121 14 13 57
49 95 81 39 32 72 61 73 65 2 5 10 8 18 8 10 0 14 -15 15 -57z m106 -513 c11
0 54 -18 97 -39 267 -136 394 -403 331 -695 -11 -51 -52 -144 -90 -200 -122
-184 -370 -297 -582 -264 -316 48 -536 300 -538 613 -1 240 144 456 377 564
l43 20 25 -23 c14 -13 32 -28 40 -35 8 -6 26 -21 40 -32 14 -12 45 -37 69 -57
24 -21 58 -49 75 -65 l31 -28 3 123 c3 126 9 145 43 127 10 -5 26 -9 36 -9z"/>
<path d="M0 875 c0 -13 28 -15 189 -15 159 0 190 2 195 15 5 13 -20 15 -189
15 -167 0 -195 -2 -195 -15z"/>
</g>
</svg>
