<?xml version="1.0" standalone="no"?>
<!DOCTYPE svg PUBLIC "-//W3C//DTD SVG 20010904//EN"
 "http://www.w3.org/TR/2001/REC-SVG-20010904/DTD/svg10.dtd">
<svg version="1.0" xmlns="http://www.w3.org/2000/svg"
 width="32" height="30" viewBox="0 0 300.000000 298.000000"
 preserveAspectRatio="xMidYMid meet">
<metadata>
Created by potrace 1.10, written by Peter Selinger 2001-2011
</metadata>
<g transform="translate(0.000000,298.000000) scale(0.100000,-0.100000)"
fill="#2A7AE4" stroke="none">
<path d="M850 2829 c-93 -16 -246 -74 -332 -125 -147 -88 -277 -237 -341 -390
-45 -107 -60 -210 -54 -373 9 -261 52 -367 212 -526 110 -110 202 -169 334
-216 l76 -27 7 -58 c19 -151 93 -343 178 -461 30 -43 55 -81 55 -85 0 -12 145
-140 217 -191 74 -53 230 -131 307 -153 45 -14 55 -14 63 -3 8 11 9 10 4 -3
-3 -10 -1 -18 4 -18 6 0 10 5 10 10 0 14 47 13 56 -2 4 -6 3 -8 -4 -4 -6 3
-13 2 -16 -3 -8 -12 95 -31 171 -31 40 0 62 -4 58 -10 -19 -31 -316 27 -471
91 -159 66 -311 177 -404 293 -25 31 -50 56 -57 56 -14 0 -68 88 -59 97 3 4 6
2 6 -4 0 -6 7 -14 16 -17 12 -5 11 0 -4 22 -29 41 -101 187 -137 276 -37 94
-55 108 -55 42 0 -55 37 -162 98 -280 117 -228 298 -404 527 -512 153 -73 223
-87 415 -88 183 -1 266 12 425 66 182 62 304 134 387 231 149 173 243 366 283
582 26 137 17 388 -19 510 -76 260 -251 486 -485 625 -144 86 -350 153 -509
166 l-77 7 -35 60 c-46 81 -147 187 -229 241 -89 59 -237 132 -286 140 -52 10
-35 -6 25 -23 25 -8 77 -29 115 -48 142 -71 247 -163 344 -300 l50 -72 -107
-4 -107 -3 109 -2 c90 -2 111 -5 123 -19 14 -17 14 -17 9 0 -7 21 10 22 102 6
37 -7 59 -15 52 -19 -7 -4 -8 -10 -4 -12 26 -15 119 -40 156 -42 41 -2 185
-61 238 -96 14 -9 52 -34 85 -55 130 -83 283 -269 348 -422 32 -73 66 -198 65
-233 0 -8 3 -23 7 -32 4 -11 3 -18 -4 -18 -7 0 -7 -8 -1 -26 24 -62 4 -214
-51 -384 -35 -106 -118 -254 -134 -238 -4 4 5 22 19 41 39 51 93 175 121 279
28 100 47 322 27 303 -6 -5 -13 -41 -17 -80 -18 -205 -38 -275 -123 -436 -45
-85 -50 -119 -17 -119 21 0 59 42 96 107 17 30 33 52 35 50 2 -2 -7 -33 -20
-69 -77 -203 -227 -393 -377 -475 -142 -78 -440 -163 -495 -142 -10 4 -36 11
-58 14 -72 12 -36 20 132 30 164 10 275 45 362 115 18 15 7 12 -44 -11 -134
-59 -245 -77 -455 -71 -112 3 -248 32 -355 75 -47 19 -86 33 -86 31 0 -7 97
-52 148 -69 30 -9 102 -26 160 -36 101 -18 103 -18 33 -13 -270 20 -545 182
-726 426 -83 112 -175 324 -199 461 -6 34 -5 38 11 33 10 -3 56 -10 103 -16
411 -56 798 227 920 671 21 80 41 205 30 192 -4 -4 -12 -42 -18 -83 -17 -110
-38 -173 -71 -208 -16 -17 -38 -54 -48 -82 -10 -28 -47 -91 -83 -138 -193
-257 -490 -372 -790 -306 -92 21 -238 97 -310 161 -59 54 -80 56 -40 6 66 -84
-78 24 -162 121 -34 39 -74 98 -89 131 -41 89 -59 217 -20 143 8 -16 10 -17 6
-4 -17 57 -15 168 3 275 11 62 18 121 15 130 -4 12 -3 13 5 3 7 -11 11 -8 16
11 3 14 9 33 12 44 5 15 4 16 -6 3 -19 -24 -2 26 30 90 106 211 323 373 570
425 39 8 122 15 183 16 94 1 106 2 77 11 -47 14 -270 3 -340 -16 -167 -47
-294 -126 -414 -258 -62 -68 -139 -188 -135 -210 4 -20 -11 -59 -21 -53 -8 5
-35 -56 -51 -117 -8 -32 -8 -31 -5 8 5 52 74 206 133 299 25 38 78 102 117
140 75 73 209 160 228 149 6 -4 8 -3 4 4 -8 13 4 21 41 26 15 2 62 13 103 25
41 11 101 26 135 31 82 15 98 21 89 30 -15 15 -86 19 -144 9z m-675 -825 c-4
-35 -11 -64 -16 -64 -13 0 -11 91 3 131 16 46 22 17 13 -67z"/>
<path d="M841 2705 c-35 -8 -66 -17 -70 -21 -3 -4 5 -4 19 0 14 4 76 10 138
13 61 3 112 10 112 14 0 14 -127 9 -199 -6z"/>
<path d="M1140 2640 c92 -25 186 -68 254 -117 31 -22 43 -28 32 -15 -55 63
-206 134 -311 146 -44 5 -41 3 25 -14z"/>
<path d="M643 2606 c-101 -51 -193 -129 -257 -220 -50 -70 -89 -143 -82 -154
6 -10 -40 -143 -47 -136 -9 9 -20 -124 -13 -165 3 -22 3 -54 -1 -72 l-7 -34
-7 35 c-5 25 -7 13 -6 -40 0 -56 4 -78 16 -88 12 -10 13 -14 3 -19 -11 -4 -10
-7 1 -17 8 -6 26 -40 41 -76 15 -36 47 -87 71 -115 l45 -50 -48 81 c-57 96
-92 197 -98 279 -4 58 -4 57 15 -29 20 -91 89 -245 135 -301 25 -30 25 -30 -2
25 -62 127 -103 218 -107 236 -2 10 -9 39 -16 64 -18 74 -6 223 25 315 38 112
110 256 146 290 17 16 30 24 30 17 0 -6 -4 -13 -9 -16 -19 -12 -18 -57 2 -83
l21 -26 -31 -56 c-46 -85 -63 -151 -78 -311 -16 -177 74 -386 212 -489 63 -47
193 -113 233 -118 14 -2 39 -8 55 -13 137 -42 341 0 502 103 174 112 267 257
293 462 12 90 12 107 1 101 -5 -3 -14 -36 -20 -72 -17 -96 -57 -213 -90 -264
-39 -59 -104 -138 -114 -139 -5 -1 -27 -16 -50 -35 -62 -50 -156 -93 -264
-122 -78 -21 -108 -25 -163 -19 -36 4 -72 10 -78 14 -23 14 38 234 89 320 11
18 18 35 15 38 -8 8 -65 -103 -90 -177 -13 -41 -28 -99 -32 -128 -4 -32 -11
-52 -18 -49 -6 2 -35 12 -63 21 -29 10 -53 23 -53 29 0 7 11 55 25 107 53 197
172 389 345 553 50 48 88 87 84 87 -4 0 -40 -25 -81 -56 -158 -121 -277 -301
-338 -509 -43 -151 -57 -185 -69 -178 -44 25 -126 87 -130 99 -3 8 -12 14 -20
14 -8 0 -21 12 -29 28 -8 15 -32 57 -55 93 -29 48 -45 89 -56 145 -9 44 -19
90 -21 102 -4 16 -2 21 5 17 8 -5 11 9 10 42 -4 135 46 275 142 396 35 44 21
49 -44 16 l-41 -21 7 27 c10 41 49 87 119 140 77 60 87 70 65 62 -32 -11 -19
9 27 42 41 29 52 41 41 41 -2 0 -44 -20 -93 -44z m-262 -265 c-12 -16 -32 -49
-46 -73 -14 -24 -25 -38 -25 -32 0 13 77 134 85 134 4 0 -3 -13 -14 -29z"/>
<path d="M1241 2646 c10 -9 109 -56 109 -51 0 5 -95 55 -106 55 -4 0 -5 -2 -3
-4z"/>
<path d="M337 2388 c-26 -34 -77 -132 -77 -145 0 -4 15 19 33 52 18 33 43 75
55 93 30 42 20 42 -11 0z"/>
<path d="M630 2393 c-16 -7 -34 -27 -51 -58 -6 -11 8 -2 32 20 24 22 46 41 48
43 8 4 -14 0 -29 -5z"/>
<path d="M1654 2240 c-105 -24 -76 -41 88 -51 117 -6 231 -24 293 -44 13 -4 9
3 -13 21 -28 23 -30 28 -16 38 35 26 -267 57 -352 36z"/>
<path d="M1656 2149 c-110 -16 -89 -29 46 -29 154 0 270 -15 321 -41 21 -10
46 -19 55 -19 10 0 22 -4 27 -9 6 -5 36 -23 67 -40 69 -38 220 -184 271 -263
40 -61 107 -195 107 -214 0 -6 7 -17 15 -24 10 -8 15 -31 15 -71 0 -32 4 -68
8 -81 5 -13 3 -73 -5 -141 -14 -126 -50 -242 -100 -326 -15 -25 -28 -51 -28
-57 0 -13 -183 -184 -197 -184 -5 0 -7 -4 -4 -8 4 -7 -248 -113 -268 -112 -6
0 -1 7 10 16 18 15 18 15 -6 10 -14 -3 -34 -6 -45 -6 -17 0 -17 -2 -5 -10 11
-7 4 -10 -27 -10 -23 0 -50 -3 -60 -6 -15 -5 -15 -4 -3 5 12 9 11 11 -8 11
-14 0 -21 -4 -16 -11 4 -8 -3 -9 -22 -5 -16 3 -56 6 -89 7 -68 2 -202 42 -294
89 -33 16 -63 30 -66 30 -9 0 22 -55 50 -88 32 -38 31 -42 -2 -42 -59 1 -177
75 -268 169 -44 46 -64 54 -39 16 9 -14 12 -25 8 -25 -14 1 -59 38 -59 49 0 6
-3 10 -7 9 -3 -2 -18 8 -32 21 -45 42 -29 10 40 -82 73 -97 161 -176 268 -240
73 -43 228 -106 261 -106 11 0 -7 10 -40 23 -33 12 -78 32 -100 45 -46 25 -36
23 53 -14 101 -42 207 -65 311 -67 l96 -2 -70 -6 -70 -6 70 -2 c79 -2 229 20
290 42 53 19 33 20 -29 1 -87 -27 -84 -15 4 14 143 47 290 132 364 210 16 16
32 28 36 26 6 -4 28 21 84 94 18 23 -25 -3 -49 -29 -26 -29 -184 -147 -255
-191 -82 -51 -135 -75 -235 -104 -81 -24 -101 -26 -192 -21 -173 10 -427 72
-517 127 -65 40 -153 110 -161 128 -6 15 6 7 50 -32 30 -28 139 -77 170 -77
40 0 65 17 65 45 0 14 2 25 5 25 2 0 39 -11 82 -25 106 -35 200 -48 296 -41
278 20 385 62 543 211 90 83 106 104 143 182 67 139 89 215 98 343 14 191 -4
279 -95 450 -56 107 -82 140 -197 252 -77 76 -186 147 -247 162 -16 3 -28 13
-28 20 0 15 -24 21 -155 36 -103 11 -156 11 -239 -1z"/>
<path d="M1733 1958 c-5 -7 -19 -52 -30 -99 -12 -47 -33 -114 -47 -149 -14
-35 -23 -66 -19 -70 3 -3 8 1 10 8 3 6 13 12 23 12 28 0 71 119 84 235 7 55
-3 86 -21 63z"/>
<path d="M897 1573 c-25 -63 -47 -145 -46 -172 0 -14 7 1 14 34 7 33 22 84 34
114 11 30 19 56 17 58 -2 2 -10 -13 -19 -34z"/>
<path d="M517 1373 c81 -79 284 -174 368 -173 43 1 -25 28 -115 46 -41 8 -141
60 -197 103 -88 67 -113 78 -56 24z"/>
<path d="M821 1125 c-2 -44 42 -193 79 -271 21 -46 41 -84 44 -84 2 0 -11 37
-31 81 -19 45 -44 120 -55 168 -11 47 -24 95 -28 106 -9 20 -9 20 -9 0z"/>
<path d="M1310 734 c1 -18 37 -52 78 -73 57 -29 65 -26 17 5 -22 15 -52 38
-67 52 -16 14 -28 22 -28 16z"/>
<path d="M2544 626 c-54 -68 -187 -169 -294 -220 -47 -22 -87 -44 -88 -48 -6
-13 -71 -38 -152 -58 -41 -10 -66 -19 -55 -19 11 -1 67 10 123 24 57 14 109
22 114 19 7 -5 8 -2 3 5 -5 9 -2 12 11 9 29 -7 115 39 108 57 -4 9 0 15 8 15
8 0 28 11 44 25 16 14 33 25 37 25 9 0 17 7 95 83 47 46 99 123 90 132 -2 2
-22 -20 -44 -49z"/>
</g>
</svg>
