<?xml version="1.0" standalone="no"?>
<!DOCTYPE svg PUBLIC "-//W3C//DTD SVG 20010904//EN"
 "http://www.w3.org/TR/2001/REC-SVG-20010904/DTD/svg10.dtd">
<svg version="1.0" xmlns="http://www.w3.org/2000/svg"
 width="32" height="30" viewBox="0 0 300.000000 300.000000"
 preserveAspectRatio="xMidYMid meet">
<metadata>
Created by potrace 1.10, written by Peter Selinger 2001-2011
</metadata>
<g transform="translate(0.000000,300.000000) scale(0.100000,-0.100000)"
fill="#2A7AE4" stroke="none">
<path d="M1365 2313 c-165 -36 -243 -70 -337 -148 -97 -79 -175 -209 -216
-358 -9 -32 -5 -29 67 43 50 51 96 86 136 106 54 26 70 28 165 29 92 0 111 -3
150 -24 83 -44 154 -99 260 -201 122 -118 164 -150 264 -196 111 -51 230 -74
356 -70 58 2 114 6 125 9 177 44 239 74 326 160 78 76 141 173 183 284 19 48
33 89 31 91 -3 3 -64 -60 -85 -87 -13 -17 -90 -69 -135 -91 -44 -22 -63 -25
-155 -25 -97 1 -110 3 -174 33 -56 26 -93 56 -200 160 -173 170 -242 216 -396
263 -60 18 -102 23 -210 25 -74 1 -144 0 -155 -3z m349 -48 c138 -38 230 -99
395 -262 133 -131 177 -160 290 -189 102 -25 195 -15 290 33 42 21 79 40 84
41 18 8 4 -26 -34 -85 -50 -76 -146 -168 -217 -206 -181 -98 -475 -96 -674 4
-84 42 -125 74 -238 183 -125 120 -196 172 -284 209 -65 27 -77 29 -163 25
-86 -5 -100 -9 -183 -51 -103 -52 -107 -48 -43 50 90 136 240 231 419 263 72
13 289 4 358 -15z"/>
<path d="M729 1496 c-2 -2 -30 -7 -61 -10 -238 -28 -436 -196 -523 -445 -30
-86 -31 -105 -3 -66 43 60 112 116 186 152 70 35 82 38 161 38 147 -1 213 -38
416 -232 128 -123 227 -186 360 -230 73 -24 94 -27 235 -27 130 0 166 3 227
21 152 45 256 125 352 268 43 65 111 214 111 245 0 6 -28 -19 -62 -55 -96
-103 -188 -146 -314 -147 -141 -1 -205 33 -378 201 -174 169 -282 238 -422
266 -21 5 -46 10 -54 12 -22 6 -226 14 -231 9z m274 -50 c153 -36 266 -108
432 -276 55 -56 118 -113 141 -126 96 -56 215 -78 324 -59 43 7 149 53 177 77
25 21 23 1 -4 -53 -40 -76 -164 -199 -239 -237 -104 -52 -172 -66 -334 -67
-140 0 -149 1 -240 34 -132 46 -194 87 -328 214 -211 198 -320 256 -460 243
-90 -8 -127 -20 -196 -61 -33 -19 -62 -33 -65 -30 -13 14 59 124 118 182 96
93 227 155 363 172 90 11 232 5 311 -13z"/>
</g>
</svg>
